<svg xmlns="http://www.w3.org/2000/svg" width="595" height="842" viewBox="0 0 595 842" font-family="'Hiragino Mincho ProN','Yu Mincho',serif">
  <rect width="595" height="842" fill="#ffffff"/>
  <rect x="0.5" y="0.5" width="594" height="841" fill="none" stroke="#cccccc"/>
  <rect x="400" y="28" width="155" height="22" rx="4" fill="#fde2e2" stroke="#f3b0b0"/>
  <text x="477" y="43" text-anchor="middle" font-size="11" fill="#b91c1c" font-weight="bold">令和7年4月 義務化</text>
  <text x="297" y="86" text-anchor="middle" font-size="19" letter-spacing="2" fill="#111">貨物軽自動車安全管理者選任届出書</text>

  <text x="560" y="126" text-anchor="end" font-size="13" fill="#1d4ed8" font-weight="bold" text-decoration="underline">令和8年6月1日</text>
  <text x="40" y="164" font-size="14" fill="#111"><tspan fill="#1d4ed8" font-weight="bold" text-decoration="underline">東京</tspan> 運輸支局長　殿</text>

  <rect x="320" y="182" width="235" height="86" fill="none" stroke="#bbb"/>
  <text x="332" y="202" font-size="12" fill="#333">届出者</text>
  <text x="332" y="224" font-size="12" fill="#333">住所　<tspan fill="#1d4ed8" font-weight="bold">東京都渋谷区渋谷1-2-3 渋谷ハイツ101</tspan></text>
  <text x="332" y="248" font-size="12" fill="#333">氏名　<tspan fill="#1d4ed8" font-weight="bold">山田 太郎</tspan>　　　㊞</text>

  <text x="40" y="300" font-size="12" fill="#222">貨物軽自動車安全管理者を下記のとおり選任したので、貨物自動車運送</text>
  <text x="40" y="318" font-size="12" fill="#222">事業法の規定により届け出ます。</text>

  <!-- table -->
  <g stroke="#666" stroke-width="1">
    <rect x="40" y="345" width="515" height="288" fill="none"/>
    <line x1="40" y1="393" x2="555" y2="393"/>
    <line x1="40" y1="441" x2="555" y2="441"/>
    <line x1="40" y1="489" x2="555" y2="489"/>
    <line x1="40" y1="537" x2="555" y2="537"/>
    <line x1="40" y1="585" x2="555" y2="585"/>
    <line x1="230" y1="345" x2="230" y2="633"/>
  </g>
  <g font-size="12" fill="#333">
    <rect x="40" y="345" width="190" height="288" fill="#f5f5f5"/>
    <text x="50" y="374">事業者の氏名・名称</text>
    <text x="50" y="422">安全管理者の氏名</text>
    <text x="50" y="470">生年月日</text>
    <text x="50" y="518">選任年月日</text>
    <text x="50" y="566">講習修了年月日</text>
    <text x="50" y="614">修了証番号 / 機関</text>
  </g>
  <g font-size="12" fill="#1d4ed8" font-weight="bold">
    <text x="242" y="374">山田 太郎</text>
    <text x="242" y="422">山田 太郎</text>
    <text x="242" y="470">平成2年5月10日</text>
    <text x="242" y="518">令和8年6月1日</text>
    <text x="242" y="566">令和8年5月1日</text>
    <text x="242" y="608">NASVA-2026-000123</text>
    <text x="242" y="624">NASVA（自動車事故対策機構）</text>
  </g>

  <rect x="40" y="650" width="515" height="42" fill="#fde2e2" stroke="#f3b0b0"/>
  <text x="52" y="670" font-size="11" fill="#b91c1c">⚠ 安全管理者は講習（NASVA等）を修了した者を選任。個人事業主は</text>
  <text x="52" y="686" font-size="11" fill="#b91c1c">　 本人が受講するのが一般的。修了日は選任日より前であること。</text>

  <text x="297" y="800" text-anchor="middle" font-size="9" fill="#bbb">黒ナンバー書類自動生成アプリ — 記入見本（サンプル: 山田太郎/東京）</text>
</svg>
